<svg width="235" height="68" viewBox="0 0 235 68" fill="none" xmlns="http://www.w3.org/2000/svg">
<path d="M19.2544 10.9706L0 0V22.8389C0 25.6117 1.48756 28.1713 3.89672 29.544L23.1512 40.5146V17.6756C23.1512 14.9029 21.6636 12.3432 19.2544 10.9706Z" fill="white"/>
<path fill-rule="evenodd" clip-rule="evenodd" d="M34.6888 33.941L23.1514 40.5146L27.9745 19.5507L38.5855 13.5049V27.2359C38.5855 30.0087 37.0979 32.5684 34.6888 33.941Z" fill="white"/>
<path d="M19.2547 60.9505L7.71729 67.5242V53.7932C7.71729 51.0204 9.20484 48.4608 11.614 47.0881L23.1514 40.5145V54.2455C23.1514 57.0182 21.6638 59.5779 19.2547 60.9505Z" fill="white"/>
<path fill-rule="evenodd" clip-rule="evenodd" d="M143.195 43.6043H151.509L153.244 39.8335H162.749L164.484 43.6043H172.798L162.088 23.9138H153.905L143.195 43.6043ZM157.996 29.5005L160.568 35.0923H155.425L157.996 29.5005Z" fill="white"/>
<path d="M118.455 23.9138H109.261V43.6043H116.692V33.0699L123.754 43.123H128.085L135.166 33.0699V43.6043H142.596V23.9138H133.402L125.92 33.4308L118.455 23.9138Z" fill="white"/>
<path d="M79.8483 23.9138H87.1194V33.2552C87.1194 36.4624 90.0533 37.414 92.804 37.414C95.5547 37.414 98.4886 36.4624 98.4886 33.2552V23.9138H105.76V35.5104C105.76 39.6697 103.403 43.7933 93.0058 43.6043C82.6083 43.7933 79.8483 39.6697 79.8483 35.5104V23.9138Z" fill="white"/>
<path d="M59.1609 23.9138L64.7278 30.8141L70.3613 23.9138H79.1283L68.2848 36.5477V43.1479H61.0785V36.5477L50.1606 23.9138H59.1609Z" fill="white"/>
<path fill-rule="evenodd" clip-rule="evenodd" d="M225.271 28.8021C217.356 28.8021 215.644 33.6349 215.644 36.2987C215.644 38.9625 217.356 44.1379 225.271 44.1379C233.187 44.1379 234.899 38.7342 234.899 36.2987C234.899 33.8633 233.187 28.8021 225.271 28.8021ZM231.55 36.2987C231.55 34.6624 230.903 31.1234 225.271 31.1234C219.639 31.1234 218.878 34.7766 218.878 36.2987C218.878 37.8209 219.639 41.4741 225.271 41.4741C230.903 41.4741 231.55 37.9351 231.55 36.2987Z" fill="white"/>
<path fill-rule="evenodd" clip-rule="evenodd" d="M184.374 23.4948V43.8948H197.708C200.172 43.8948 204.513 43.4674 204.513 38.5232C204.513 33.579 199.368 33.2976 199.368 33.2976C199.368 33.2976 203.87 32.3731 203.87 28.273C203.87 24.1729 199.689 23.4948 197.708 23.4948H184.374ZM187.549 32.2927V25.786H196.554C196.554 25.786 200.514 25.5054 200.514 29.0394C200.514 32.5733 196.554 32.2927 196.554 32.2927H187.549ZM187.549 41.5171V34.6212H196.554C198.537 34.6212 201.076 34.6212 201.076 38.0691C201.076 41.5171 198.284 41.5171 196.554 41.5171H187.549Z" fill="white"/>
<path d="M208.909 43.8948H212.091V29.4334H208.909V43.8948Z" fill="white"/>
<path d="M208.909 23.3865H212.091V26.5656H208.909V23.3865Z" fill="white"/>
</svg>
